# xmcd CD database file
#
# Track frame offsets:
#	150
#	11517
#	23022
#	32375
#	44420
#	54527
#	69487
#	80940
#	91717
#	105175
#	117535
#	128502
#	142365
#	154142
#	167150
#	176680
#
# Disc length: 2500 seconds
#
# Revision: 2
# Processed by: cddbd v1.4PL0 Copyright (c) Steve Scherf et al.
# Submitted via: Feurio! 1.66 - http://www.feurio.com
#
DISCID=ce09c210
DTITLE=Various Artist - The Very Best Of Country Hits, CD1
DYEAR=1900
DGENRE=Country
TTITLE0=Dave Dudley - Six Days On The Road
TTITLE1=George Jones - The Window Up Above
TTITLE2=Jeannie C. Riley - The Girl Most Likely
TTITLE3=Eddie Arnold - Make The World Go Away
TTITLE4=Pozo Seco Singers - Apartment No 9
TTITLE5=Don Gibson - The Streets Of Laredo
TTITLE6=Patsy Cline - The Heart You Break
TTITLE7=Johnny Cash - I Heard That Lonesome Whistle
TTITLE8=Don Williams - Where Do I Go From Here
TTITLE9=Billie Joe Spears - Sunshine
TTITLE10=Johnny Russel - Blue Eyes Cryin' In The Rain
TTITLE11=Anne Murray - What About Me
TTITLE12=Lester Flatt and Earl Scruggs - Before I Met You
TTITLE13=Boxcar Willie - T For Texas
TTITLE14=Lynn Anderson - Snowbird
TTITLE15=Porter Wagoner - Enough To Make A Grown Man Cry
EXTD=
EXTT0=
EXTT1=
EXTT2=
EXTT3=
EXTT4=
EXTT5=
EXTT6=
EXTT7=
EXTT8=
EXTT9=
EXTT10=
EXTT11=
EXTT12=
EXTT13=
EXTT14=
EXTT15=
PLAYORDER=
